# MagicaVoxel @ Ephtracy

# group
o 

# material
mtllib BarrelGun-0.mtl
usemtl palette

# normals
vn -1 0 0
vn 1 0 0
vn 0 0 1
vn 0 0 -1
vn 0 -1 0
vn 0 1 0

# texcoords
vt 0.919922 0.5
vt 0.974609 0.5

# verts
v -4.8 5.6 -31.5
v -4.8 5.6 -33.3
v -4.8 5.6 -33.6
v -4.8 5.6 -35.4
v -4.8 5.6 -35.7
v -4.8 5.6 -37.5
v -4.8 5.6 -37.7
v -4.8 5.6 -39.5
v -4.8 11 -33.3
v -4.8 11 -33.6
v -4.8 11 -35.4
v -4.8 11 -35.7
v -4.8 11 -37.5
v -4.8 11 -37.7
v -4.8 12.9 -31.5
v -4.8 12.9 -39.5
v -2.8 10.9 -33.1
v -2.8 10.9 -39.5
v -2.8 11 -33.1
v -2.8 11 -39.5
v -0.8 6.9 -29.5
v -0.8 6.9 -31.5
v -0.8 11 -31.5
v -0.8 12.9 -29.5
v -0.8 12.9 -31.5
v 3.2 10.6 -32
v 3.2 10.6 -39.1
v 3.2 11 -32.7
v 3.2 11 -38.4
v 3.2 12.9 -32.7
v 3.2 12.9 -38.4
v 3.2 13.2 -32
v 3.2 13.2 -39.1
v 8.1 10.9 -32.3
v 8.1 10.9 -35.2
v 8.1 11.8 -32.3
v 8.1 11.8 -35.2
v 10.3 10.9 -32.3
v 10.3 10.9 -35.2
v 10.3 11.8 -32.3
v 10.3 11.8 -35.2
v 12.5 10.9 -32.3
v 12.5 10.9 -35.2
v 12.5 11.8 -32.3
v 12.5 11.8 -35.2
v 14.7 10.9 -32.3
v 14.7 10.9 -35.2
v 14.7 11.8 -32.3
v 14.7 11.8 -35.2
v 16.9 10.9 -32.3
v 16.9 10.9 -35.2
v 16.9 11.8 -32.3
v 16.9 11.8 -35.2
v -3 7.4 -31.5
v -3 7.4 -33.3
v -3 7.4 -33.6
v -3 7.4 -35.4
v -3 7.4 -35.7
v -3 7.4 -37.5
v -3 7.4 -37.7
v -3 7.4 -39.5
v -3 11 -31.5
v -3 11 -33.3
v -3 11 -33.6
v -3 11 -35.4
v -3 11 -35.7
v -3 11 -37.5
v -3 11 -37.7
v -3 11 -39.5
v -1.2 5.6 -31.5
v -1.2 5.6 -33.3
v -1.2 5.6 -33.6
v -1.2 5.6 -35.4
v -1.2 5.6 -35.7
v -1.2 5.6 -37.5
v -1.2 5.6 -37.7
v -1.2 5.6 -39.5
v -1.2 7.4 -31.5
v -1.2 7.4 -33.3
v -1.2 7.4 -33.6
v -1.2 7.4 -35.4
v -1.2 7.4 -35.7
v -1.2 7.4 -37.5
v -1.2 7.4 -37.7
v -1.2 7.4 -39.5
v -0.8 10.9 -33.1
v -0.8 10.9 -39.5
v -0.8 11 -33.1
v -0.8 11 -39.5
v 1.2 6.9 -29.5
v 1.2 6.9 -31.5
v 1.2 11 -31.5
v 1.2 11 -32.7
v 1.2 11 -38.4
v 1.2 11 -39.5
v 1.2 12.9 -29.5
v 1.2 12.9 -32.7
v 1.2 12.9 -38.4
v 1.2 12.9 -39.5
v 5.8 10.6 -32
v 5.8 10.6 -39.1
v 5.8 10.9 -32.3
v 5.8 10.9 -38.9
v 5.8 13.1 -32.3
v 5.8 13.1 -38.9
v 5.8 13.2 -32
v 5.8 13.2 -39.1
v 8 10.9 -32.3
v 8 10.9 -35.2
v 8 11.8 -32.3
v 8 11.8 -35.2
v 10.2 10.9 -32.3
v 10.2 10.9 -35.2
v 10.2 11.8 -32.3
v 10.2 11.8 -35.2
v 12.4 10.9 -32.3
v 12.4 10.9 -35.2
v 12.4 11.8 -32.3
v 12.4 11.8 -35.2
v 14.6 10.9 -32.3
v 14.6 10.9 -35.2
v 14.6 11.8 -32.3
v 14.6 11.8 -35.2
v 16.8 10.9 -32.3
v 16.8 10.9 -35.2
v 16.8 11.8 -32.3
v 16.8 11.8 -35.2
v 19 10.9 -32.3
v 19 10.9 -38.9
v 19 13.1 -32.3
v 19 13.1 -38.9
v -0.8 6.9 -29.5
v -0.8 12.9 -29.5
v 1.2 6.9 -29.5
v 1.2 12.9 -29.5
v -4.8 5.6 -31.5
v -4.8 12.9 -31.5
v -3 7.4 -31.5
v -3 11 -31.5
v -1.2 5.6 -31.5
v -1.2 7.4 -31.5
v -0.8 11 -31.5
v -0.8 12.9 -31.5
v 3.2 10.6 -32
v 3.2 13.2 -32
v 5.8 10.6 -32
v 5.8 13.2 -32
v 5.8 10.9 -32.3
v 5.8 13.1 -32.3
v 8 10.9 -32.3
v 8 11.8 -32.3
v 8.1 10.9 -32.3
v 8.1 11.8 -32.3
v 10.2 10.9 -32.3
v 10.2 11.8 -32.3
v 10.3 10.9 -32.3
v 10.3 11.8 -32.3
v 12.4 10.9 -32.3
v 12.4 11.8 -32.3
v 12.5 10.9 -32.3
v 12.5 11.8 -32.3
v 14.6 10.9 -32.3
v 14.6 11.8 -32.3
v 14.7 10.9 -32.3
v 14.7 11.8 -32.3
v 16.8 10.9 -32.3
v 16.8 11.8 -32.3
v 16.9 10.9 -32.3
v 16.9 11.8 -32.3
v 19 10.9 -32.3
v 19 13.1 -32.3
v 1.2 11 -32.7
v 1.2 12.9 -32.7
v 3.2 11 -32.7
v 3.2 12.9 -32.7
v -2.8 10.9 -33.1
v -2.8 11 -33.1
v -0.8 10.9 -33.1
v -0.8 11 -33.1
v -4.8 5.6 -33.6
v -4.8 11 -33.6
v -3 7.4 -33.6
v -3 11 -33.6
v -1.2 5.6 -33.6
v -1.2 7.4 -33.6
v 8 10.9 -35.2
v 8 11.8 -35.2
v 8.1 10.9 -35.2
v 8.1 11.8 -35.2
v 10.2 10.9 -35.2
v 10.2 11.8 -35.2
v 10.3 10.9 -35.2
v 10.3 11.8 -35.2
v 12.4 10.9 -35.2
v 12.4 11.8 -35.2
v 12.5 10.9 -35.2
v 12.5 11.8 -35.2
v 14.6 10.9 -35.2
v 14.6 11.8 -35.2
v 14.7 10.9 -35.2
v 14.7 11.8 -35.2
v 16.8 10.9 -35.2
v 16.8 11.8 -35.2
v 16.9 10.9 -35.2
v 16.9 11.8 -35.2
v -4.8 5.6 -35.7
v -4.8 11 -35.7
v -3 7.4 -35.7
v -3 11 -35.7
v -1.2 5.6 -35.7
v -1.2 7.4 -35.7
v -4.8 5.6 -37.7
v -4.8 11 -37.7
v -3 7.4 -37.7
v -3 11 -37.7
v -1.2 5.6 -37.7
v -1.2 7.4 -37.7
v -0.8 6.9 -31.5
v -0.8 11 -31.5
v 1.2 6.9 -31.5
v 1.2 11 -31.5
v -4.8 5.6 -33.3
v -4.8 11 -33.3
v -3 7.4 -33.3
v -3 11 -33.3
v -1.2 5.6 -33.3
v -1.2 7.4 -33.3
v -4.8 5.6 -35.4
v -4.8 11 -35.4
v -3 7.4 -35.4
v -3 11 -35.4
v -1.2 5.6 -35.4
v -1.2 7.4 -35.4
v -4.8 5.6 -37.5
v -4.8 11 -37.5
v -3 7.4 -37.5
v -3 11 -37.5
v -1.2 5.6 -37.5
v -1.2 7.4 -37.5
v 1.2 11 -38.4
v 1.2 12.9 -38.4
v 3.2 11 -38.4
v 3.2 12.9 -38.4
v 5.8 10.9 -38.9
v 5.8 13.1 -38.9
v 19 10.9 -38.9
v 19 13.1 -38.9
v 3.2 10.6 -39.1
v 3.2 13.2 -39.1
v 5.8 10.6 -39.1
v 5.8 13.2 -39.1
v -4.8 5.6 -39.5
v -4.8 12.9 -39.5
v -3 7.4 -39.5
v -3 11 -39.5
v -2.8 10.9 -39.5
v -2.8 11 -39.5
v -1.2 5.6 -39.5
v -1.2 7.4 -39.5
v -0.8 10.9 -39.5
v -0.8 11 -39.5
v 1.2 11 -39.5
v 1.2 12.9 -39.5
v -4.8 5.6 -31.5
v -1.2 5.6 -31.5
v -4.8 5.6 -33.3
v -1.2 5.6 -33.3
v -4.8 5.6 -33.6
v -1.2 5.6 -33.6
v -4.8 5.6 -35.4
v -1.2 5.6 -35.4
v -4.8 5.6 -35.7
v -1.2 5.6 -35.7
v -4.8 5.6 -37.5
v -1.2 5.6 -37.5
v -4.8 5.6 -37.7
v -1.2 5.6 -37.7
v -4.8 5.6 -39.5
v -1.2 5.6 -39.5
v -0.8 6.9 -29.5
v 1.2 6.9 -29.5
v -0.8 6.9 -31.5
v 1.2 6.9 -31.5
v 3.2 10.6 -32
v 5.8 10.6 -32
v 3.2 10.6 -39.1
v 5.8 10.6 -39.1
v 5.8 10.9 -32.3
v 8 10.9 -32.3
v 8.1 10.9 -32.3
v 10.2 10.9 -32.3
v 10.3 10.9 -32.3
v 12.4 10.9 -32.3
v 12.5 10.9 -32.3
v 14.6 10.9 -32.3
v 14.7 10.9 -32.3
v 16.8 10.9 -32.3
v 16.9 10.9 -32.3
v 19 10.9 -32.3
v -2.8 10.9 -33.1
v -0.8 10.9 -33.1
v 8 10.9 -35.2
v 8.1 10.9 -35.2
v 10.2 10.9 -35.2
v 10.3 10.9 -35.2
v 12.4 10.9 -35.2
v 12.5 10.9 -35.2
v 14.6 10.9 -35.2
v 14.7 10.9 -35.2
v 16.8 10.9 -35.2
v 16.9 10.9 -35.2
v 5.8 10.9 -38.9
v 19 10.9 -38.9
v -2.8 10.9 -39.5
v -0.8 10.9 -39.5
v -3 11 -31.5
v -0.8 11 -31.5
v 1.2 11 -31.5
v 1.2 11 -32.7
v 3.2 11 -32.7
v -2.8 11 -33.1
v -0.8 11 -33.1
v -4.8 11 -33.3
v -3 11 -33.3
v -4.8 11 -33.6
v -3 11 -33.6
v -4.8 11 -35.4
v -3 11 -35.4
v -4.8 11 -35.7
v -3 11 -35.7
v -4.8 11 -37.5
v -3 11 -37.5
v -4.8 11 -37.7
v -3 11 -37.7
v 1.2 11 -38.4
v 3.2 11 -38.4
v -3 11 -39.5
v -2.8 11 -39.5
v -0.8 11 -39.5
v 1.2 11 -39.5
v 8 11.8 -32.3
v 8.1 11.8 -32.3
v 10.2 11.8 -32.3
v 10.3 11.8 -32.3
v 12.4 11.8 -32.3
v 12.5 11.8 -32.3
v 14.6 11.8 -32.3
v 14.7 11.8 -32.3
v 16.8 11.8 -32.3
v 16.9 11.8 -32.3
v 8 11.8 -35.2
v 8.1 11.8 -35.2
v 10.2 11.8 -35.2
v 10.3 11.8 -35.2
v 12.4 11.8 -35.2
v 12.5 11.8 -35.2
v 14.6 11.8 -35.2
v 14.7 11.8 -35.2
v 16.8 11.8 -35.2
v 16.9 11.8 -35.2
v -3 7.4 -31.5
v -1.2 7.4 -31.5
v -3 7.4 -33.3
v -1.2 7.4 -33.3
v -3 7.4 -33.6
v -1.2 7.4 -33.6
v -3 7.4 -35.4
v -1.2 7.4 -35.4
v -3 7.4 -35.7
v -1.2 7.4 -35.7
v -3 7.4 -37.5
v -1.2 7.4 -37.5
v -3 7.4 -37.7
v -1.2 7.4 -37.7
v -3 7.4 -39.5
v -1.2 7.4 -39.5
v -0.8 12.9 -29.5
v 1.2 12.9 -29.5
v -4.8 12.9 -31.5
v -0.8 12.9 -31.5
v 1.2 12.9 -32.7
v 3.2 12.9 -32.7
v 1.2 12.9 -38.4
v 3.2 12.9 -38.4
v -4.8 12.9 -39.5
v 1.2 12.9 -39.5
v 5.8 13.1 -32.3
v 19 13.1 -32.3
v 5.8 13.1 -38.9
v 19 13.1 -38.9
v 3.2 13.2 -32
v 5.8 13.2 -32
v 3.2 13.2 -39.1
v 5.8 13.2 -39.1

# faces
f 9/2/1 2/2/1 1/2/1
f 10/2/1 4/2/1 3/2/1
f 11/2/1 4/2/1 10/2/1
f 12/2/1 6/2/1 5/2/1
f 13/2/1 6/2/1 12/2/1
f 14/2/1 8/2/1 7/2/1
f 15/2/1 13/2/1 12/2/1
f 15/2/1 14/2/1 13/2/1
f 15/2/1 9/2/1 1/2/1
f 15/2/1 11/2/1 10/2/1
f 15/2/1 12/2/1 11/2/1
f 15/2/1 10/2/1 9/2/1
f 16/2/1 8/2/1 14/2/1
f 16/2/1 14/2/1 15/2/1
f 19/2/1 18/2/1 17/2/1
f 20/2/1 18/2/1 19/2/1
f 23/2/1 22/2/1 21/2/1
f 24/2/1 23/2/1 21/2/1
f 25/2/1 23/2/1 24/2/1
f 28/1/1 27/1/1 26/1/1
f 29/1/1 27/1/1 28/1/1
f 30/1/1 28/1/1 26/1/1
f 31/1/1 27/1/1 29/1/1
f 32/1/1 30/1/1 26/1/1
f 32/1/1 31/1/1 30/1/1
f 33/1/1 27/1/1 31/1/1
f 33/1/1 31/1/1 32/1/1
f 36/1/1 35/1/1 34/1/1
f 37/1/1 35/1/1 36/1/1
f 40/1/1 39/1/1 38/1/1
f 41/1/1 39/1/1 40/1/1
f 44/1/1 43/1/1 42/1/1
f 45/1/1 43/1/1 44/1/1
f 48/1/1 47/1/1 46/1/1
f 49/1/1 47/1/1 48/1/1
f 52/1/1 51/1/1 50/1/1
f 53/1/1 51/1/1 52/1/1
f 54/2/2 55/2/2 62/2/2
f 62/2/2 55/2/2 63/2/2
f 56/2/2 57/2/2 64/2/2
f 64/2/2 57/2/2 65/2/2
f 58/2/2 59/2/2 66/2/2
f 66/2/2 59/2/2 67/2/2
f 60/2/2 61/2/2 68/2/2
f 68/2/2 61/2/2 69/2/2
f 70/2/2 71/2/2 78/2/2
f 78/2/2 71/2/2 79/2/2
f 72/2/2 73/2/2 80/2/2
f 80/2/2 73/2/2 81/2/2
f 74/2/2 75/2/2 82/2/2
f 82/2/2 75/2/2 83/2/2
f 76/2/2 77/2/2 84/2/2
f 84/2/2 77/2/2 85/2/2
f 86/2/2 87/2/2 88/2/2
f 88/2/2 87/2/2 89/2/2
f 90/2/2 91/2/2 92/2/2
f 90/2/2 92/2/2 96/2/2
f 92/2/2 93/2/2 96/2/2
f 96/2/2 93/2/2 97/2/2
f 94/2/2 95/2/2 98/2/2
f 98/2/2 95/2/2 99/2/2
f 100/1/2 101/1/2 102/1/2
f 102/1/2 101/1/2 103/1/2
f 100/1/2 102/1/2 104/1/2
f 103/1/2 101/1/2 105/1/2
f 100/1/2 104/1/2 106/1/2
f 104/1/2 105/1/2 106/1/2
f 105/1/2 101/1/2 107/1/2
f 106/1/2 105/1/2 107/1/2
f 108/1/2 109/1/2 110/1/2
f 110/1/2 109/1/2 111/1/2
f 112/1/2 113/1/2 114/1/2
f 114/1/2 113/1/2 115/1/2
f 116/1/2 117/1/2 118/1/2
f 118/1/2 117/1/2 119/1/2
f 120/1/2 121/1/2 122/1/2
f 122/1/2 121/1/2 123/1/2
f 124/1/2 125/1/2 126/1/2
f 126/1/2 125/1/2 127/1/2
f 128/1/2 129/1/2 130/1/2
f 130/1/2 129/1/2 131/1/2
f 134/2/3 133/2/3 132/2/3
f 135/2/3 133/2/3 134/2/3
f 138/2/3 137/2/3 136/2/3
f 139/2/3 137/2/3 138/2/3
f 140/2/3 138/2/3 136/2/3
f 141/2/3 138/2/3 140/2/3
f 142/2/3 137/2/3 139/2/3
f 143/2/3 137/2/3 142/2/3
f 146/1/3 145/1/3 144/1/3
f 147/1/3 145/1/3 146/1/3
f 150/1/3 149/1/3 148/1/3
f 151/1/3 149/1/3 150/1/3
f 153/1/3 149/1/3 151/1/3
f 154/1/3 153/1/3 152/1/3
f 155/1/3 149/1/3 153/1/3
f 155/1/3 153/1/3 154/1/3
f 157/1/3 149/1/3 155/1/3
f 158/1/3 157/1/3 156/1/3
f 159/1/3 149/1/3 157/1/3
f 159/1/3 157/1/3 158/1/3
f 161/1/3 149/1/3 159/1/3
f 162/1/3 161/1/3 160/1/3
f 163/1/3 149/1/3 161/1/3
f 163/1/3 161/1/3 162/1/3
f 165/1/3 149/1/3 163/1/3
f 166/1/3 165/1/3 164/1/3
f 167/1/3 149/1/3 165/1/3
f 167/1/3 165/1/3 166/1/3
f 169/1/3 149/1/3 167/1/3
f 170/1/3 169/1/3 168/1/3
f 171/1/3 149/1/3 169/1/3
f 171/1/3 169/1/3 170/1/3
f 174/2/3 173/2/3 172/2/3
f 175/2/3 173/2/3 174/2/3
f 178/2/3 177/2/3 176/2/3
f 179/2/3 177/2/3 178/2/3
f 182/2/3 181/2/3 180/2/3
f 183/2/3 181/2/3 182/2/3
f 184/2/3 182/2/3 180/2/3
f 185/2/3 182/2/3 184/2/3
f 188/1/3 187/1/3 186/1/3
f 189/1/3 187/1/3 188/1/3
f 192/1/3 191/1/3 190/1/3
f 193/1/3 191/1/3 192/1/3
f 196/1/3 195/1/3 194/1/3
f 197/1/3 195/1/3 196/1/3
f 200/1/3 199/1/3 198/1/3
f 201/1/3 199/1/3 200/1/3
f 204/1/3 203/1/3 202/1/3
f 205/1/3 203/1/3 204/1/3
f 208/2/3 207/2/3 206/2/3
f 209/2/3 207/2/3 208/2/3
f 210/2/3 208/2/3 206/2/3
f 211/2/3 208/2/3 210/2/3
f 214/2/3 213/2/3 212/2/3
f 215/2/3 213/2/3 214/2/3
f 216/2/3 214/2/3 212/2/3
f 217/2/3 214/2/3 216/2/3
f 218/2/4 219/2/4 220/2/4
f 220/2/4 219/2/4 221/2/4
f 222/2/4 223/2/4 224/2/4
f 224/2/4 223/2/4 225/2/4
f 222/2/4 224/2/4 226/2/4
f 226/2/4 224/2/4 227/2/4
f 228/2/4 229/2/4 230/2/4
f 230/2/4 229/2/4 231/2/4
f 228/2/4 230/2/4 232/2/4
f 232/2/4 230/2/4 233/2/4
f 234/2/4 235/2/4 236/2/4
f 236/2/4 235/2/4 237/2/4
f 234/2/4 236/2/4 238/2/4
f 238/2/4 236/2/4 239/2/4
f 240/2/4 241/2/4 242/2/4
f 242/2/4 241/2/4 243/2/4
f 244/1/4 245/1/4 246/1/4
f 246/1/4 245/1/4 247/1/4
f 248/1/4 249/1/4 250/1/4
f 250/1/4 249/1/4 251/1/4
f 252/2/4 253/2/4 254/2/4
f 254/2/4 253/2/4 255/2/4
f 255/2/4 253/2/4 257/2/4
f 252/2/4 254/2/4 258/2/4
f 258/2/4 254/2/4 259/2/4
f 256/2/4 257/2/4 260/2/4
f 257/2/4 253/2/4 261/2/4
f 260/2/4 257/2/4 261/2/4
f 261/2/4 253/2/4 262/2/4
f 262/2/4 253/2/4 263/2/4
f 266/2/5 265/2/5 264/2/5
f 267/2/5 265/2/5 266/2/5
f 270/2/5 269/2/5 268/2/5
f 271/2/5 269/2/5 270/2/5
f 274/2/5 273/2/5 272/2/5
f 275/2/5 273/2/5 274/2/5
f 278/2/5 277/2/5 276/2/5
f 279/2/5 277/2/5 278/2/5
f 282/2/5 281/2/5 280/2/5
f 283/2/5 281/2/5 282/2/5
f 286/1/5 285/1/5 284/1/5
f 287/1/5 285/1/5 286/1/5
f 302/1/5 289/1/5 288/1/5
f 303/1/5 291/1/5 290/1/5
f 304/1/5 291/1/5 303/1/5
f 305/1/5 293/1/5 292/1/5
f 306/1/5 293/1/5 305/1/5
f 307/1/5 295/1/5 294/1/5
f 308/1/5 295/1/5 307/1/5
f 309/1/5 297/1/5 296/1/5
f 310/1/5 297/1/5 309/1/5
f 311/1/5 299/1/5 298/1/5
f 312/1/5 302/1/5 288/1/5
f 312/1/5 311/1/5 310/1/5
f 312/1/5 304/1/5 303/1/5
f 312/1/5 306/1/5 305/1/5
f 312/1/5 309/1/5 308/1/5
f 312/1/5 308/1/5 307/1/5
f 312/1/5 307/1/5 306/1/5
f 312/1/5 310/1/5 309/1/5
f 312/1/5 305/1/5 304/1/5
f 312/1/5 303/1/5 302/1/5
f 313/1/5 299/1/5 311/1/5
f 313/1/5 311/1/5 312/1/5
f 314/2/5 301/2/5 300/2/5
f 315/2/5 301/2/5 314/2/5
f 319/2/5 317/2/5 316/2/5
f 319/2/5 318/2/5 317/2/5
f 321/2/5 319/2/5 316/2/5
f 321/2/5 320/2/5 319/2/5
f 322/2/5 320/2/5 321/2/5
f 324/2/5 321/2/5 316/2/5
f 325/2/5 324/2/5 323/2/5
f 326/2/5 321/2/5 324/2/5
f 326/2/5 324/2/5 325/2/5
f 328/2/5 321/2/5 326/2/5
f 329/2/5 328/2/5 327/2/5
f 330/2/5 321/2/5 328/2/5
f 330/2/5 328/2/5 329/2/5
f 332/2/5 321/2/5 330/2/5
f 333/2/5 332/2/5 331/2/5
f 334/2/5 321/2/5 332/2/5
f 334/2/5 332/2/5 333/2/5
f 335/2/5 320/2/5 322/2/5
f 336/2/5 320/2/5 335/2/5
f 337/2/5 321/2/5 334/2/5
f 338/2/5 321/2/5 337/2/5
f 339/2/5 335/2/5 322/2/5
f 340/2/5 335/2/5 339/2/5
f 351/1/5 342/1/5 341/1/5
f 352/1/5 342/1/5 351/1/5
f 353/1/5 344/1/5 343/1/5
f 354/1/5 344/1/5 353/1/5
f 355/1/5 346/1/5 345/1/5
f 356/1/5 346/1/5 355/1/5
f 357/1/5 348/1/5 347/1/5
f 358/1/5 348/1/5 357/1/5
f 359/1/5 350/1/5 349/1/5
f 360/1/5 350/1/5 359/1/5
f 361/2/6 362/2/6 363/2/6
f 363/2/6 362/2/6 364/2/6
f 365/2/6 366/2/6 367/2/6
f 367/2/6 366/2/6 368/2/6
f 369/2/6 370/2/6 371/2/6
f 371/2/6 370/2/6 372/2/6
f 373/2/6 374/2/6 375/2/6
f 375/2/6 374/2/6 376/2/6
f 377/2/6 378/2/6 380/2/6
f 380/2/6 378/2/6 381/2/6
f 379/2/6 380/2/6 381/2/6
f 379/2/6 381/2/6 383/2/6
f 381/2/6 382/2/6 383/2/6
f 383/2/6 382/2/6 384/2/6
f 379/2/6 383/2/6 385/2/6
f 385/2/6 383/2/6 386/2/6
f 387/1/6 388/1/6 389/1/6
f 389/1/6 388/1/6 390/1/6
f 391/1/6 392/1/6 393/1/6
f 393/1/6 392/1/6 394/1/6
